# xmcd
#
# Track frame offsets:
#	150
#	23902
#	37787
#	52017
#	80093
#	94850
#	108975
#	124467
#	139185
#	153009
#	177145
#	201564
#	217990
#	233839
#	250826
#	264679
#	291847
#	319306
#
# Disc length: 4743 seconds
#
# Revision: 0
# Processed by: cddbd v1.5.1PL0 Copyright (c) Steve Scherf et al.
# Submitted via: audiograbber 1.83.01
#
DISCID=07128512
DTITLE=Crazy Frog - Crazy Frog
DYEAR=2005
DGENRE=Club
TTITLE0=Crazy Frog - Alex F (Club remix)
TTITLE1=DJ Aligator - Yallah Yallah (DJ Aligator vs. Andy and Ragheb Alame radio 
TTITLE1=mix)
TTITLE2=Brisby and Jingles - We All Love Disco
TTITLE3=Pondlife - Ring Ding Ding (Extended Original mix)
TTITLE4=Pulsedriver - Vegabonds (Real Booty Babes remix)
TTITLE5=Party Pleazers - Body Flow
TTITLE6=Rico Bass - Talkin 2 The Night
TTITLE7=Rocco - Breath of Life (Singel mix)
TTITLE8=Mysterio - Fading Like A Flower (East Rockerz Radio Remix)
TTITLE9=Klubbingman feat. Trixi Delgardo - Revolution (Tune Up vs Cascada remix
TTITLE9=)
TTITLE10=Longy and Longa feat. Doublesweat - Lick It (Tron mix)
TTITLE11=D.J. Ptrick - My Girl
TTITLE12=Mark Smile - Days of Summer
TTITLE13=Picco - It Goes On and On
TTITLE14=Potatoheadz feat. Lizzy Pattinson - Narcotic
TTITLE15=Adrima - Discoland (Pulsedriver remix)
TTITLE16=Stagediverz - Rockin da Floor (Stagediverz remix)
TTITLE17=Luna Park - The Lonely Shepherd (Alex Megane remix)
EXTD=
EXTT0=
EXTT1=
EXTT2=
EXTT3=
EXTT4=
EXTT5=
EXTT6=
EXTT7=
EXTT8=
EXTT9=
EXTT10=
EXTT11=
EXTT12=
EXTT13=
EXTT14=
EXTT15=
EXTT16=
EXTT17=
PLAYORDER=
